<svg xmlns="http://www.w3.org/2000/svg" enable-background="new 0 0 250.9 169.8" version="1.1" viewBox="0 0 250.9 169.8" x="0px" xml:space="preserve" y="0px" style="fill: rgb(0, 0, 0);" role="img" aria-label="Blue Pink Modern Gradient Blob with Spots">
<g style="fill: url(&quot;#__id117_svb8eafg7f&quot;);">
	<linearGradient gradientUnits="userSpaceOnUse" id="__id117_svb8eafg7f" x1="-2.7285e-12" x2="246.1" y1="86.114" y2="86.114">
		<stop offset="0" style="stop-color: rgb(167, 255, 131);"></stop>
		<stop offset="1" style="stop-color: rgb(8, 105, 114);"></stop>
	</linearGradient>
	<path d="m245.9 40.9c-1.7-20.7-18.8-37.2-39.5-38.3-16-0.9-30.2 7.2-38 19.7-3.9 6.2-11.6 8.8-18.6 6.5-5.4-1.8-11.3-2.8-17.3-2.8-17.6 0-33.3 8.2-43.5 21.1-5.9 7.5-15.5 10.9-24.9 9.4-4.1-0.7-8.4-0.9-12.7-0.6-27.9 1.9-50.1 24.8-51.3 52.7-1.4 31.7 23.9 57.8 55.3 57.8 13 0 24.9-4.5 34.3-11.9 9.5-7.5 22.9-7.1 31.9 1 10.5 9.4 24.6 14.9 40 14.1 28.3-1.5 51.2-24.7 52.3-53 0.1-3.3 0-6.4-0.4-9.6-1.4-10.7 3.4-21.1 12.6-26.8 12.9-7.9 21.2-22.7 19.8-39.3z" style="fill: inherit;"></path>
	<circle cx="65.3" cy="39.3" r="11.9" style="fill: inherit;"></circle>
	<circle cx="130.2" cy="7.1" r="7.1" style="fill: inherit;"></circle>
	<circle cx="239.8" cy="103.3" r="11.2" style="fill: inherit;"></circle>
</g>
</svg>
